<?xml version="1.0" encoding="utf-8"?>
<!-- Generator: Adobe Illustrator 20.0.0, SVG Export Plug-In . SVG Version: 6.00 Build 0)  -->
<svg version="1.1" id="Layer_1" xmlns="http://www.w3.org/2000/svg" xmlns:xlink="http://www.w3.org/1999/xlink" x="0px" y="0px"
	 viewBox="0 0 653 188">
<style type="text/css">
	.st0{fill:#5FBBEB;}
	.st1{fill:#182F3C;}
</style>
<g>
	<g>
		<path class="st0" d="M544.4,89.7c-6.3-0.3-10,2.5-11.1,7.7c-0.1,0.8,0.3,1,1,0.6c3.4-2.4,6.7-4.7,10.4-7.3
			C545.2,90.2,545.1,89.7,544.4,89.7"/>
		<path class="st0" d="M638.5,35.3c-1.8-1.4-4.4-1.2-5.9,0.6l-33.4,40.9c-1.1-0.8-2.2-1.5-3.4-2.1l25.7-36.7
			c0.1-0.1,0.1-0.2,0.2-0.3c1.2-2,0.5-4.5-1.5-5.7c-2-1.2-4.5-0.5-5.7,1.5l-23,39.4c-7.3-2.2-15.7-1.1-22.3,4.2
			c-0.7,0.6-0.5,1,0.4,0.9c1.9-0.2,3.9-0.4,5.6-1c11.3-3.9,22-0.3,28.6,9.6c0.7,1.1,1.9,1.9,3,2.7c0.8,0.5,1.2,0.3,0.9-0.6
			c-1.2-3.7-3.1-6.8-5.6-9.3l36.7-37.9c0.1-0.1,0.2-0.2,0.2-0.3C640.5,39.4,640.2,36.8,638.5,35.3"/>
		<path class="st1" d="M569.1,140.1c-23.9,0.9-41-13.5-45.8-34.8c-0.2-0.9,0.4-2.2,1.4-2.2h62.6c0.2,0-0.1,3.7,0.8,4.9
			c3.8,5.2,6.5,10.7,2.1,16.7c-0.6,0.8-0.3,1.1,0.5,0.6c5.2-2.7,6.5-8.1,3.8-12.8c-1.1-2-2.8-3.8-3.4-6c-0.3-1.1,1-3.9,1.7-3.9
			c5.7-0.3,11.4-0.2,17.2-0.2c0.9,0,1.6,0.8,1.5,1.7C608.2,121.8,592.7,139.2,569.1,140.1"/>
		<path class="st0" d="M575.5,96.8c0.4,0.6,0.9,1.1,1.5,1.6c0.5,0.5,1,0.3,0.9-0.4c-0.6-5.2-4.8-8.6-9.8-8.7c-5-0.1-9.4,3.2-10,8.4
			c-0.1,0.7,0.3,0.9,0.9,0.5c0.5-0.4,1.1-0.9,1.4-1.4C564.4,90.4,571.6,90.5,575.5,96.8"/>
		<path class="st0" d="M524.9,99.8c1.5-0.9,2.9-1.5,3.2-2.5c3-8.8,9.1-12.4,18.2-11.8c1.6,0.1,3.2-0.7,5.3-1.5c0.9-0.3,1-1,0.2-1.5
			c-10.8-6.1-27.6,2.7-28.4,16.5C523.4,99.9,524.1,100.2,524.9,99.8"/>
		<path class="st0" d="M555.3,85.2c-4.3,3.3-7.5,7.5-7.7,13.3c0,0.9,0.4,1,0.9,0.2c4-7.1,8.5-13.3,17.5-14
			c9.4-0.7,15.5,3.7,19.9,11.6c0.5,0.8,1,0.8,1.2-0.2c0.3-1.5,0.3-2.9-0.3-4.1C581,81,565.3,77.5,555.3,85.2"/>
		<path class="st0" d="M591.3,98.8c-0.3,0.9,0.3,1.3,1.1,0.9c3.2-1.8,6.4-4.2,9.5-4.1c3.2,0.1,6.4,2.8,9.9,4.9
			c0.8,0.5,1.3,0.1,0.9-0.7c-2.2-5.1-6.9-8.1-11.8-7.7C596,92.4,592.6,94.8,591.3,98.8"/>
		<path class="st0" d="M582.3,80.3c-0.8,0.2-0.8,0.8,0,1.1c5.1,2.2,10.1,4.3,15.8,6.7c0.7,0.3,1,0,0.6-0.7
			C594.7,81.1,588,78.4,582.3,80.3"/>
	</g>
	<g>
		<path class="st1" d="M107.8,46.4c-4.6,1.9-8.8,2.8-12.6,2.8c-2.3,0-4.9-0.6-7.9-1.7c-3-1.1-5.2-1.7-6.7-1.7c-3.5,0-6.6,1.3-9.3,4
			c-2.7,2.7-4,5.8-4,9.3c0,3.2,1.5,5.7,4.5,7.8c1.6,1.2,2.3,2.2,2.3,3c0,1.4-0.9,3.1-2.8,5.2c-1.8,2-3.6,3.1-5.2,3.1
			c-1.9,0-3.6-1.3-5.2-3.8c-1.6-2.5-2.3-5.4-2.3-8.6c0-7.1,3.4-14.1,10.2-21c6.8-6.9,13.6-10.4,20.5-10.4c2,0,4.7,0.6,7.9,1.7
			s6.1,1.7,8.4,1.7c2.5,0,5-0.8,7.3-2.5c1-0.7,1.8-1,2.4-1c0.7,0,1.7,0.4,2.9,1.1c1.2,0.7,1.8,1.5,1.8,2.4c0,0.5-1.3,2.1-3.8,4.9
			c-3.8,4.1-6.4,8.6-7.9,13.5c-1.5,4.9-2.9,12.4-4.4,22.6c-1.5,10.2-3.1,18.5-5,24.9c-1.8,6.4-4.6,12.2-8.4,17.5
			c-3.8,5.2-8.3,9.1-13.4,11.7c-5.1,2.6-10.7,3.9-16.8,3.9c-7.2,0-13-1.7-17.4-5c-4.4-3.3-6.6-6.5-6.6-9.5c0-1.7,1.7-4.1,5.1-7
			c3.4-2.9,5.6-4.4,6.6-4.4c1.4,0,2.2,0.5,2.5,1.5c0.3,1,0.5,2.7,0.5,5.2c0,4.1,0.9,7.5,2.8,10c1.9,2.5,4.3,3.8,7.3,3.8
			c4.5,0,8.3-2.4,11.4-7.1c3.1-4.7,5.7-13.3,7.7-25.8c2-12.5,4.6-22.1,8-28.8C91.6,63.1,98.1,55.3,107.8,46.4z"/>
		<path class="st1" d="M177.6,119.6c-10.9,11.5-20.2,17.2-28,17.2c-3.2,0-5.7-1.1-7.6-3.3c-1.9-2.2-2.9-5.2-2.9-8.9
			c0-5,2.1-12.7,6.2-23.1c2.2-5.6,3.3-9.1,3.3-10.6c0-1.5-0.6-2.3-1.8-2.3c-0.7,0-1.5,0.3-2.6,1c-1,0.7-2.1,1.6-3.5,2.8
			c-1.2,1.1-2.5,2.4-4,4c-1.3,1.3-2.6,2.8-4.1,4.5l-4,4.6c-1.7,2.1-2.8,4.4-3.3,6.7c-0.7,4-1.2,7.7-1.4,11
			c-0.1,2.5-0.2,5.9-0.2,10.1l-15.6,3.7c-0.5-6.4-0.8-11.1-0.8-14.2c0-7.6,0.9-14.8,2.6-21.5c1.8-6.8,4.6-14.4,8.5-22.9l17.2-3.3
			c-3.6,9.8-6,17.4-7.1,23c7.7-8.6,13.8-14.6,18.4-17.9c4.5-3.3,8.6-5,12.1-5c2.4,0,4.4,0.9,6,2.7c1.6,1.8,2.4,4.1,2.4,6.8
			c0,4.5-2,12-6.1,22.3c-2.8,7.1-4.2,11.7-4.2,13.9c0,2.8,1.2,4.3,3.5,4.3c3.4,0,9-4.5,16.7-13.6V119.6z"/>
		<path class="st1" d="M199.3,78.2c3.3-0.8,6.5-1.5,9.8-2.1c3.3-0.5,5.3-0.8,5.9-0.8c0.5,0,0.7,0.2,0.7,0.6c0,0.7-0.2,1.4-0.6,2.2
			c-0.8,2.2-1.1,4.2-1.1,6.2c0,2.4,1.4,5.8,4.2,10c2.8,4.2,4.2,8.2,4.2,11.8c0,7.2-3.5,14.2-10.4,20.8c-6.9,6.7-14,10-21.4,10
			c-3.2,0-6.1-0.8-8.8-2.5c-2.6-1.7-4-3.5-4-5.4c0-1.1,1.3-3.3,3.9-6.4c2.6-3.2,4.5-4.7,5.6-4.7c1.5,0,2.8,1.9,4,5.8
			c1.2,3.9,3.2,5.8,6.1,5.8c2.9,0,5.6-1.3,8.1-4c2.5-2.7,3.8-5.5,3.8-8.6c0-3-1.6-6.9-4.8-11.9c-3.2-4.9-5.3-9.1-6.4-12.4
			c-5.5,8.8-12.4,17.8-20.8,27.1H176v-6.4C187.5,101,195.3,89.3,199.3,78.2z"/>
		<path class="st1" d="M273,119.6c-5.9,5.9-11.1,10.2-15.4,13c-4.3,2.8-8.5,4.2-12.4,4.2c-4.1,0-7.3-1.7-9.9-5.1
			c-2.5-3.4-3.8-7.9-3.8-13.5c0-4.9,1.2-11.4,3.6-19.4l3-10.7l-5.4,0.3l2.3-11.1l6.7-0.3l6.6-22l18.9-3.9l-7.3,24.6l10-0.6
			l-2.3,10.9l-11,0.8l-4.7,15.8c-1.6,5.5-2.5,9.9-2.5,13.1c0,2.2,0.6,4,1.7,5.4c1.1,1.4,2.5,2.1,4.3,2.1c2.4,0,4.8-0.8,7.1-2.3
			c2.4-1.5,5.8-4.7,10.4-9.6V119.6z"/>
		<path class="st1" d="M348.3,119.6c-7.5,7.2-12.9,11.8-16.2,14c-3.3,2.2-6.4,3.3-9.3,3.3c-7.4,0-11-6.6-10.5-19.7
			c-4.7,6.7-9.1,11.7-13,14.9c-4,3.2-8.1,4.8-12.3,4.8c-4.1,0-7.7-1.9-10.6-5.8c-2.9-3.9-4.3-8.7-4.3-14.3c0-7.1,1.9-13.8,5.8-20.2
			c3.9-6.4,8.9-11.6,14.9-15.5c6.1-4,11.4-5.9,16.1-5.9c5.9,0,10,2.7,12.4,8.1l14.4-8h4l-6.2,20.7c-3.2,10.4-4.8,17.5-4.8,21.4
			c0,4,1.4,6.1,4.3,6.1c1.8,0,3.9-1,6.1-2.9c2.2-2,5.3-4.9,9.3-8.9V119.6z M296.6,123.5c4.7,0,9.1-4,13.3-12
			c4.2-8,6.3-15.4,6.3-22.2c0-2.6-0.6-4.7-1.8-6.2c-1.2-1.5-2.8-2.2-4.7-2.2c-4.7,0-9.2,4-13.4,12c-4.2,8-6.3,15.4-6.3,22.1
			c0,2.5,0.6,4.6,1.9,6.2C293.1,122.7,294.7,123.5,296.6,123.5z"/>
		<path class="st1" d="M417.6,119.6c-10.9,11.5-20.2,17.2-28,17.2c-3.2,0-5.7-1.1-7.6-3.3c-1.9-2.2-2.9-5.2-2.9-8.9
			c0-5,2.1-12.7,6.2-23.1c2.2-5.6,3.3-9.1,3.3-10.6c0-1.5-0.6-2.3-1.8-2.3c-0.7,0-1.5,0.3-2.6,1c-1,0.7-2.1,1.6-3.5,2.8
			c-1.2,1.1-2.5,2.4-4,4c-1.3,1.3-2.6,2.8-4.1,4.5l-4,4.6c-1.7,2.1-2.8,4.4-3.3,6.7c-0.7,4-1.2,7.7-1.4,11
			c-0.1,2.5-0.2,5.9-0.2,10.1l-15.6,3.7c-0.5-6.4-0.8-11.1-0.8-14.2c0-7.6,0.9-14.8,2.6-21.5c1.8-6.8,4.6-14.4,8.5-22.9L376,75
			c-3.6,9.8-6,17.4-7.1,23c7.7-8.6,13.8-14.6,18.4-17.9c4.5-3.3,8.6-5,12.1-5c2.4,0,4.4,0.9,6,2.7c1.6,1.8,2.4,4.1,2.4,6.8
			c0,4.5-2,12-6.1,22.3c-2.8,7.1-4.2,11.7-4.2,13.9c0,2.8,1.2,4.3,3.5,4.3c3.4,0,9-4.5,16.7-13.6V119.6z"/>
		<path class="st1" d="M457.8,119.6c-5.9,5.9-11.1,10.2-15.4,13c-4.3,2.8-8.5,4.2-12.4,4.2c-4.1,0-7.3-1.7-9.9-5.1
			c-2.5-3.4-3.8-7.9-3.8-13.5c0-4.9,1.2-11.4,3.6-19.4l3-10.7l-5.4,0.3l2.3-11.1l6.7-0.3l6.6-22l18.9-3.9l-7.3,24.6l10-0.6
			l-2.3,10.9l-11,0.8l-4.7,15.8c-1.6,5.5-2.5,9.9-2.5,13.1c0,2.2,0.6,4,1.7,5.4c1.1,1.4,2.5,2.1,4.3,2.1c2.4,0,4.8-0.8,7.1-2.3
			c2.4-1.5,5.8-4.7,10.4-9.6V119.6z"/>
		<path class="st1" d="M509.9,119.6c-6,5.9-11.4,10.2-16.1,13c-4.8,2.8-10,4.2-15.8,4.2c-6.4,0-11.6-2-15.5-6.1
			c-3.9-4.1-5.9-9.5-5.9-16.2c0-10,3.5-19,10.4-27.1c6.9-8.1,14.6-12.1,23-12.1c4.4,0,7.9,1.1,10.5,3.4c2.6,2.3,4,5.2,4,8.9
			c0,9.8-10.4,17.7-31.1,23.7c1.9,9.2,6.8,13.8,14.8,13.8c3.1,0,6.1-0.8,8.9-2.5c2.8-1.7,7.1-5.4,12.8-11.1V119.6z M472.9,106.5
			c12.1-3.4,18.1-9.7,18.1-18.8c0-4.5-1.6-6.8-4.9-6.8c-3.1,0-6.1,2.4-8.9,7.1C474.3,92.8,472.9,99,472.9,106.5z"/>
	</g>
</g>
</svg>
