<?xml version="1.0" standalone="no"?>
<!DOCTYPE svg PUBLIC "-//W3C//DTD SVG 20010904//EN"
 "http://www.w3.org/TR/2001/REC-SVG-20010904/DTD/svg10.dtd">
<svg version="1.0" xmlns="http://www.w3.org/2000/svg"
 width="824.000000pt" height="824.000000pt" viewBox="0 0 824.000000 824.000000"
 preserveAspectRatio="xMidYMid meet">
<metadata>
Created by potrace 1.11, written by Peter Selinger 2001-2013
</metadata>
<g transform="translate(0.000000,824.000000) scale(0.100000,-0.100000)"
fill="#000000" stroke="none">
<path d="M6617 7940 c-66 -17 -131 -67 -175 -135 -15 -22 -55 -89 -90 -150
-36 -60 -74 -126 -85 -145 -11 -19 -34 -57 -49 -85 -16 -27 -43 -72 -59 -100
-17 -27 -33 -58 -36 -67 -3 -10 -9 -18 -14 -18 -5 0 -9 -4 -9 -9 0 -10 -82
-152 -137 -238 -18 -29 -31 -53 -29 -53 3 0 -17 -36 -44 -80 -28 -44 -50 -84
-50 -90 0 -5 -4 -10 -9 -10 -5 0 -11 -8 -14 -17 -4 -10 -18 -38 -33 -63 -14
-25 -46 -79 -71 -120 -24 -41 -48 -82 -53 -90 -5 -8 -45 -78 -90 -155 -44 -77
-132 -228 -195 -335 -63 -107 -131 -224 -152 -260 -21 -36 -44 -77 -53 -91
-22 -37 -97 -167 -127 -219 -14 -25 -40 -69 -59 -97 -19 -29 -31 -53 -28 -53
4 0 0 -8 -8 -17 -9 -10 -24 -34 -33 -53 -10 -19 -21 -37 -24 -40 -3 -3 -15
-23 -26 -44 -37 -73 -52 -87 -83 -75 -15 6 -36 13 -47 15 -97 19 -124 24 -150
29 -147 26 -385 26 -545 0 -19 -3 -46 -7 -60 -9 -14 -3 -45 -9 -70 -15 -25 -7
-53 -14 -63 -16 -108 -25 -346 -132 -446 -199 -29 -20 -55 -36 -57 -36 -2 0
-31 -21 -63 -46 -96 -74 -90 -99 19 -88 134 14 207 23 232 30 9 3 26 7 39 9
12 2 47 12 78 21 31 10 61 18 68 20 7 1 34 9 60 17 53 17 100 29 123 32 8 1
29 5 45 9 81 18 130 24 240 32 50 3 95 6 100 5 6 0 53 -2 105 -5 145 -8 261
-30 400 -76 81 -26 229 -88 240 -100 3 -3 25 -16 50 -29 60 -32 174 -108 205
-137 15 -13 28 -24 31 -24 3 0 15 -10 28 -22 12 -13 43 -42 68 -65 57 -51 193
-206 216 -245 9 -15 20 -28 24 -28 4 0 8 -5 8 -11 0 -34 167 -192 248 -236 35
-18 43 -19 53 -7 29 35 -77 287 -198 473 -30 47 -58 88 -62 91 -3 3 -28 32
-56 65 -27 33 -56 65 -63 71 -11 8 -5 20 33 60 41 43 309 319 600 620 180 186
472 488 559 577 211 219 547 566 621 642 44 45 175 180 290 300 116 119 252
261 304 314 229 236 246 261 245 371 -1 80 -9 117 -34 152 -11 15 -20 30 -20
33 0 13 -67 67 -109 87 -58 28 -165 33 -226 10 -25 -9 -45 -20 -45 -24 0 -4
-6 -8 -14 -8 -16 0 -93 -82 -176 -190 -19 -25 -37 -47 -40 -50 -3 -3 -44 -52
-90 -110 -83 -103 -115 -142 -135 -164 -6 -6 -60 -72 -120 -146 -60 -74 -111
-137 -114 -140 -4 -3 -44 -52 -91 -110 -46 -58 -87 -107 -90 -110 -3 -3 -43
-52 -90 -110 -46 -58 -90 -111 -97 -118 -8 -8 -26 -30 -41 -50 -28 -37 -59
-76 -77 -96 -6 -6 -38 -45 -70 -86 -73 -91 -94 -116 -120 -146 -12 -12 -32
-37 -45 -55 -14 -18 -30 -37 -35 -43 -6 -6 -49 -58 -95 -116 -47 -58 -89 -110
-95 -116 -5 -6 -21 -25 -35 -43 -14 -18 -34 -43 -45 -55 -11 -11 -36 -41 -55
-66 -19 -25 -39 -51 -45 -58 -5 -7 -22 -26 -37 -42 -16 -15 -28 -33 -28 -39 0
-6 -4 -11 -8 -11 -4 0 -26 -24 -47 -52 -22 -29 -45 -57 -50 -63 -6 -5 -28 -32
-50 -60 -21 -27 -43 -54 -49 -60 -6 -5 -27 -30 -46 -55 -19 -25 -37 -47 -40
-50 -3 -3 -21 -25 -40 -50 -19 -24 -42 -52 -50 -60 -9 -9 -29 -33 -45 -55 -17
-22 -37 -47 -45 -55 -42 -45 -70 -81 -70 -89 0 -11 -28 -22 -32 -13 -5 12
-100 73 -172 111 -25 14 -46 29 -46 35 0 9 95 154 110 166 3 3 17 23 32 45 15
22 47 69 73 105 25 36 57 83 72 105 14 22 29 42 33 45 3 3 17 23 30 45 13 22
32 48 43 57 10 9 18 19 17 22 0 4 18 31 40 61 22 30 40 57 40 60 0 4 6 13 13
20 19 22 30 37 62 85 17 25 36 51 43 58 6 7 12 17 12 22 0 5 6 15 13 22 7 7
37 49 67 93 30 44 60 85 65 92 6 6 25 33 43 60 18 26 60 86 93 133 32 47 65
94 72 104 6 10 22 31 35 46 12 15 22 31 22 34 0 4 5 12 11 19 13 15 164 229
221 315 23 34 46 62 50 62 4 0 8 4 8 9 0 5 112 169 249 364 136 196 256 375
266 399 72 179 -55 380 -248 393 -34 2 -79 0 -100 -5z"/>
<path d="M4397 4544 c-1 -1 -29 -4 -62 -7 -33 -4 -69 -9 -80 -11 -153 -36
-161 -68 -34 -121 35 -15 82 -35 104 -45 58 -26 79 -33 88 -32 4 1 7 -2 7 -8
0 -5 3 -9 8 -8 4 1 21 -4 37 -12 17 -7 44 -18 60 -25 17 -7 48 -21 70 -31 22
-9 42 -18 45 -19 3 -1 16 -6 30 -12 42 -18 85 -36 90 -38 9 -3 55 -22 105 -45
28 -12 75 -32 105 -45 30 -13 89 -38 130 -55 181 -79 214 -90 229 -80 19 11 7
40 -44 109 -74 100 -150 182 -224 241 -17 14 -38 30 -45 37 -65 58 -260 151
-381 182 -45 12 -230 31 -238 25z"/>
<path d="M1367 4484 c-1 -1 -27 -5 -57 -9 -89 -10 -111 -15 -190 -36 -41 -12
-79 -22 -85 -23 -39 -10 -240 -98 -256 -112 -8 -8 -19 -14 -22 -14 -10 0 -112
-63 -115 -72 -2 -4 -8 -8 -14 -8 -10 0 -128 -95 -193 -157 -132 -124 -243
-288 -328 -483 -16 -36 -57 -178 -63 -215 -2 -11 -5 -31 -8 -45 -22 -114 -11
-190 28 -196 21 -3 96 27 96 38 0 5 5 8 10 8 16 0 122 70 143 94 26 29 57 92
50 100 -4 3 -1 6 6 6 7 0 10 4 7 8 -7 11 80 190 129 267 189 297 478 467 850
500 58 5 245 7 305 3 38 -2 165 30 225 58 17 7 56 23 88 34 63 24 87 42 87 69
0 25 -25 45 -105 81 -38 18 -78 36 -87 41 -10 5 -26 9 -36 9 -10 0 -23 5 -30
12 -7 7 -12 9 -12 6 0 -4 -15 -2 -32 3 -18 5 -46 12 -63 14 -16 3 -41 7 -55
11 -24 5 -268 13 -273 8z"/>
<path d="M3048 4445 c-2 -2 -32 -6 -68 -9 -58 -5 -124 -16 -187 -31 -13 -3
-31 -7 -40 -9 -43 -10 -152 -50 -212 -78 -36 -17 -72 -32 -80 -34 -8 -1 -17
-6 -20 -11 -3 -4 -19 -15 -36 -23 -16 -8 -32 -17 -35 -20 -3 -3 -18 -14 -35
-24 -145 -92 -365 -314 -443 -446 -18 -30 -37 -62 -42 -70 -9 -16 -44 -91 -46
-100 0 -3 -6 -18 -13 -35 -41 -97 -80 -359 -58 -382 15 -14 46 13 77 68 59
105 63 111 144 234 229 350 466 556 751 653 68 24 124 38 175 46 19 3 46 8 60
12 43 10 332 12 398 3 89 -13 122 -19 167 -30 22 -6 47 -12 55 -14 8 -2 29 -9
45 -16 17 -6 38 -14 48 -15 53 -11 276 -143 352 -209 103 -90 197 -191 265
-286 42 -58 140 -208 140 -214 0 -4 12 -22 26 -40 23 -30 28 -33 50 -23 14 6
24 20 25 32 0 12 3 30 5 41 10 45 10 143 -1 190 -12 54 -52 135 -72 148 -7 4
-13 13 -13 18 0 12 -55 91 -85 124 -11 11 -43 45 -70 75 -43 47 -126 124 -160
148 -5 4 -26 18 -45 32 -19 13 -37 27 -40 30 -3 4 -21 15 -40 26 -19 10 -37
21 -40 24 -14 14 -205 102 -281 128 -91 32 -237 66 -334 77 -61 8 -282 15
-287 10z"/>
<path d="M3147 3874 c-1 -1 -33 -4 -72 -8 -274 -25 -508 -214 -584 -471 -27
-93 -33 -141 -16 -155 13 -11 42 -4 62 16 7 7 23 21 36 31 12 10 48 52 79 93
59 79 159 180 177 180 6 0 11 5 11 10 0 6 5 10 10 10 6 0 27 11 48 23 35 23
84 42 131 52 11 3 31 7 44 10 72 17 208 0 292 -35 17 -7 33 -13 38 -12 4 1 7
-2 7 -7 0 -5 11 -12 25 -15 14 -4 25 -11 25 -16 0 -6 4 -10 10 -10 22 0 180
-155 180 -177 0 -7 4 -13 8 -13 4 0 15 -13 24 -28 24 -40 114 -129 139 -137
11 -4 25 -3 30 2 11 11 13 49 5 83 -3 14 -8 34 -10 45 -19 89 -76 205 -131
269 -5 6 -25 28 -42 49 -18 21 -33 35 -33 32 0 -4 -8 1 -17 11 -56 56 -192
123 -292 145 -48 10 -180 27 -184 23z"/>
<path d="M1254 3825 c-38 -7 -81 -16 -95 -21 -13 -4 -28 -9 -34 -10 -53 -10
-195 -98 -238 -148 -10 -12 -30 -34 -43 -49 -49 -55 -117 -215 -129 -303 -7
-49 15 -61 64 -36 22 12 48 28 58 36 10 8 63 47 118 85 55 39 109 77 120 85
29 21 302 214 355 250 24 17 56 41 70 54 13 12 28 22 32 22 15 0 8 29 -9 38
-25 14 -185 11 -269 -3z"/>
<path d="M5458 3675 c-2 -2 -22 -5 -45 -9 -116 -15 -267 -71 -348 -126 -110
-75 -200 -189 -241 -302 -24 -66 -25 -85 -8 -102 19 -20 50 -15 100 17 22 13
59 35 84 49 25 14 86 49 135 78 285 166 454 184 680 73 59 -30 223 -130 350
-214 110 -72 125 -79 148 -67 48 25 -61 226 -197 364 -155 156 -334 234 -548
239 -59 1 -109 1 -110 0z"/>
<path d="M4990 2920 c0 -3 -17 -4 -37 -3 -58 3 -72 -5 -107 -60 -44 -69 -66
-142 -62 -197 4 -44 77 -201 97 -208 5 -2 9 -8 9 -13 0 -4 32 -57 71 -116 38
-59 79 -127 90 -152 11 -25 24 -54 29 -63 5 -9 12 -30 15 -45 2 -15 8 -39 11
-53 11 -44 12 -198 2 -242 -5 -24 -11 -51 -13 -60 -6 -29 -63 -141 -87 -172
-66 -85 -141 -150 -231 -200 -87 -48 -100 -28 -39 62 193 285 181 588 -37 947
-17 28 -36 60 -42 73 -7 12 -16 22 -21 22 -4 0 -8 5 -8 12 0 6 -7 20 -17 30
-54 60 -83 140 -88 248 -2 30 -4 57 -5 60 -1 3 -2 26 -2 53 l1 47 -37 1 c-20
0 -1017 1 -2215 1 -2383 1 -2208 6 -2248 -59 -17 -27 -20 -43 -15 -84 7 -53
32 -156 69 -274 12 -38 22 -72 22 -75 1 -3 4 -12 8 -20 3 -8 18 -49 32 -90 14
-41 33 -90 42 -110 8 -19 19 -44 23 -55 26 -63 139 -289 172 -343 21 -34 38
-66 38 -71 0 -5 3 -11 8 -13 8 -3 62 -84 62 -93 0 -2 7 -13 15 -22 7 -10 44
-58 81 -108 96 -129 135 -173 259 -299 181 -183 319 -294 533 -429 108 -68
373 -204 447 -228 22 -8 42 -16 45 -19 3 -3 10 -6 15 -7 6 -1 48 -15 95 -31
85 -30 199 -64 255 -78 17 -4 35 -8 40 -10 26 -6 98 -21 138 -28 12 -2 33 -7
47 -10 50 -11 192 -30 325 -43 159 -16 639 -8 740 12 18 4 55 9 145 20 14 2
50 8 80 14 30 7 66 14 80 16 14 3 84 21 155 40 72 20 135 37 140 38 6 1 24 8
40 14 17 6 75 28 130 48 105 40 292 127 410 193 133 73 390 250 465 320 16 15
50 45 76 67 54 46 220 214 261 264 15 18 41 48 58 67 77 85 245 320 245 341 0
6 4 13 8 15 10 4 81 126 128 218 95 187 197 451 220 570 3 13 9 29 15 36 5 6
6 13 4 16 -3 3 -1 16 4 30 5 14 12 42 15 62 4 21 8 41 10 45 2 3 7 28 10 55 9
61 -5 96 -45 120 -28 16 -69 17 -604 15 -316 -2 -575 -6 -575 -9z"/>
</g>
</svg>
